<svg width="2323" height="1254" xmlns="http://www.w3.org/2000/svg"><g><path d="M-123.79459007643163,-101.80160927586257L-132.7701094094664,659.8120615817606L-117.35812436789274,41.97824874892831Z" fill="#cd584d" stroke="#cd584d"></path><path d="M-123.79459007643163,-101.80160927586257L-117.35812436789274,41.97824874892831L27.29795040562749,-56.023929035291076Z" fill="#b80422" stroke="#b80422"></path><path d="M-123.79459007643163,-101.80160927586257L27.29795040562749,-56.023929035291076L282.6190462242812,-82.95975691638887Z" fill="#bf1725" stroke="#bf1725"></path><path d="M-123.79459007643163,-101.80160927586257L282.6190462242812,-82.95975691638887L483.9140914287418,-127.27842296473682Z" fill="#ca312e" stroke="#ca312e"></path><path d="M27.29795040562749,-56.023929035291076L-117.35812436789274,41.97824874892831L129.33660599403083,94.25958856008947Z" fill="#c72935" stroke="#c72935"></path><path d="M27.29795040562749,-56.023929035291076L129.33660599403083,94.25958856008947L282.6190462242812,-82.95975691638887Z" fill="#cf3139" stroke="#cf3139"></path><path d="M282.6190462242812,-82.95975691638887L129.33660599403083,94.25958856008947L217.1936220768839,108.51182182319462Z" fill="#dc5048" stroke="#dc5048"></path><path d="M282.6190462242812,-82.95975691638887L217.1936220768839,108.51182182319462L360.19085065461695,85.79562027007341Z" fill="#e25c4e" stroke="#e25c4e"></path><path d="M282.6190462242812,-82.95975691638887L360.19085065461695,85.79562027007341L368.6623012740165,-95.0702712032944Z" fill="#de4c46" stroke="#de4c46"></path><path d="M282.6190462242812,-82.95975691638887L368.6623012740165,-95.0702712032944L483.9140914287418,-127.27842296473682Z" fill="#d74b3f" stroke="#d74b3f"></path><path d="M368.6623012740165,-95.0702712032944L360.19085065461695,85.79562027007341L497.59447348304093,42.48853144235909Z" fill="#e56458" stroke="#e56458"></path><path d="M368.6623012740165,-95.0702712032944L497.59447348304093,42.48853144235909L483.9140914287418,-127.27842296473682Z" fill="#dd5452" stroke="#dd5452"></path><path d="M483.9140914287418,-127.27842296473682L497.59447348304093,42.48853144235909L716.2965058442205,-35.12667917646468Z" fill="#e26567" stroke="#e26567"></path><path d="M483.9140914287418,-127.27842296473682L716.2965058442205,-35.12667917646468L813.4281857963651,-67.16256737709045Z" fill="#e06e70" stroke="#e06e70"></path><path d="M483.9140914287418,-127.27842296473682L813.4281857963651,-67.16256737709045L1032.4344642274082,-105.41070300154388Z" fill="#dd7474" stroke="#dd7474"></path><path d="M483.9140914287418,-127.27842296473682L1032.4344642274082,-105.41070300154388L1383.007269501686,-112.89173131808639Z" fill="#dc7e82" stroke="#dc7e82"></path><path d="M483.9140914287418,-127.27842296473682L1383.007269501686,-112.89173131808639L1689.876663275063,-128.02332043647766Z" fill="#d2777a" stroke="#d2777a"></path><path d="M716.2965058442205,-35.12667917646468L497.59447348304093,42.48853144235909L708.5290068481117,27.892060009762645Z" fill="#ea807c" stroke="#ea807c"></path><path d="M716.2965058442205,-35.12667917646468L708.5290068481117,27.892060009762645L813.4281857963651,-67.16256737709045Z" fill="#e67b80" stroke="#e67b80"></path><path d="M813.4281857963651,-67.16256737709045L708.5290068481117,27.892060009762645L781.4685527142137,107.60273700580001Z" fill="#ec8d8a" stroke="#ec8d8a"></path><path d="M813.4281857963651,-67.16256737709045L781.4685527142137,107.60273700580001L1034.634686820209,69.0472046379Z" fill="#ee9896" stroke="#ee9896"></path><path d="M813.4281857963651,-67.16256737709045L1034.634686820209,69.0472046379L1032.4344642274082,-105.41070300154388Z" fill="#e68390" stroke="#e68390"></path><path d="M1032.4344642274082,-105.41070300154388L1034.634686820209,69.0472046379L1070.137695595622,42.17847118154168Z" fill="#e78f97" stroke="#e78f97"></path><path d="M1032.4344642274082,-105.41070300154388L1070.137695595622,42.17847118154168L1159.4999604206532,-28.32515529356897Z" fill="#e2828f" stroke="#e2828f"></path><path d="M1032.4344642274082,-105.41070300154388L1159.4999604206532,-28.32515529356897L1383.007269501686,-112.89173131808639Z" fill="#d77781" stroke="#d77781"></path><path d="M1159.4999604206532,-28.32515529356897L1070.137695595622,42.17847118154168L1160.800969786942,200.74607491493225Z" fill="#eca5a0" stroke="#eca5a0"></path><path d="M1159.4999604206532,-28.32515529356897L1160.800969786942,200.74607491493225L1286.3262001052499,25.641005476936698Z" fill="#e8a09c" stroke="#e8a09c"></path><path d="M1159.4999604206532,-28.32515529356897L1286.3262001052499,25.641005476936698L1327.7477574627846,-35.81111784093082Z" fill="#dc808a" stroke="#dc808a"></path><path d="M1159.4999604206532,-28.32515529356897L1327.7477574627846,-35.81111784093082L1383.007269501686,-112.89173131808639Z" fill="#d57280" stroke="#d57280"></path><path d="M1327.7477574627846,-35.81111784093082L1286.3262001052499,25.641005476936698L1414.3377277627587,93.55341953225434Z" fill="#dc8a8d" stroke="#dc8a8d"></path><path d="M1327.7477574627846,-35.81111784093082L1414.3377277627587,93.55341953225434L1383.007269501686,-112.89173131808639Z" fill="#d37681" stroke="#d37681"></path><path d="M1383.007269501686,-112.89173131808639L1414.3377277627587,93.55341953225434L1582.3253962676972,-33.387229051440954Z" fill="#ca6d79" stroke="#ca6d79"></path><path d="M1383.007269501686,-112.89173131808639L1582.3253962676972,-33.387229051440954L1689.876663275063,-128.02332043647766Z" fill="#b75861" stroke="#b75861"></path><path d="M1582.3253962676972,-33.387229051440954L1414.3377277627587,93.55341953225434L1593.948264196515,129.20860033482313Z" fill="#cc8380" stroke="#cc8380"></path><path d="M1582.3253962676972,-33.387229051440954L1593.948264196515,129.20860033482313L1696.6303432825953,95.23162063211203Z" fill="#c27975" stroke="#c27975"></path><path d="M1582.3253962676972,-33.387229051440954L1696.6303432825953,95.23162063211203L1689.876663275063,-128.02332043647766Z" fill="#b55763" stroke="#b55763"></path><path d="M1689.876663275063,-128.02332043647766L1696.6303432825953,95.23162063211203L1860.2018974162638,-127.57948293350637Z" fill="#a64252" stroke="#a64252"></path><path d="M1860.2018974162638,-127.57948293350637L1696.6303432825953,95.23162063211203L1850.7889171130955,110.83397744223475Z" fill="#a9575b" stroke="#a9575b"></path><path d="M1860.2018974162638,-127.57948293350637L1850.7889171130955,110.83397744223475L1984.9136739224195,66.84867641888559Z" fill="#9d494e" stroke="#9d494e"></path><path d="M1860.2018974162638,-127.57948293350637L1984.9136739224195,66.84867641888559L2072.9140621237457,-74.88109641708434Z" fill="#8d2a3a" stroke="#8d2a3a"></path><path d="M1860.2018974162638,-127.57948293350637L2072.9140621237457,-74.88109641708434L2418.3623398281634,-119.58535496145487Z" fill="#75181e" stroke="#75181e"></path><path d="M2072.9140621237457,-74.88109641708434L1984.9136739224195,66.84867641888559L2141.696973312646,59.67000092379749Z" fill="#8a363b" stroke="#8a363b"></path><path d="M2072.9140621237457,-74.88109641708434L2141.696973312646,59.67000092379749L2186.456877468154,-19.595447927713394Z" fill="#7f242e" stroke="#7f242e"></path><path d="M2072.9140621237457,-74.88109641708434L2186.456877468154,-19.595447927713394L2303.1778351496905,-45.542001044377685Z" fill="#751121" stroke="#751121"></path><path d="M2072.9140621237457,-74.88109641708434L2303.1778351496905,-45.542001044377685L2418.3623398281634,-119.58535496145487Z" fill="#680712" stroke="#680712"></path><path d="M2186.456877468154,-19.595447927713394L2141.696973312646,59.67000092379749L2273.105508070439,177.026500236243Z" fill="#813a36" stroke="#813a36"></path><path d="M2186.456877468154,-19.595447927713394L2273.105508070439,177.026500236243L2303.1778351496905,-45.542001044377685Z" fill="#772829" stroke="#772829"></path><path d="M2303.1778351496905,-45.542001044377685L2273.105508070439,177.026500236243L2381.3903610315174,46.57674592919648Z" fill="#722826" stroke="#722826"></path><path d="M2303.1778351496905,-45.542001044377685L2381.3903610315174,46.57674592919648L2418.3623398281634,-119.58535496145487Z" fill="#660412" stroke="#660412"></path><path d="M2418.3623398281634,-119.58535496145487L2381.3903610315174,46.57674592919648L2485.5335559602827,59.18080355040729Z" fill="#6a1019" stroke="#6a1019"></path><path d="M-117.35812436789274,41.97824874892831L-132.7701094094664,659.8120615817606L-88.31744913943112,363.649924043566Z" fill="#ce7f82" stroke="#ce7f82"></path><path d="M-117.35812436789274,41.97824874892831L-88.31744913943112,363.649924043566L-59.90392302162945,192.17989118769765Z" fill="#d1574f" stroke="#d1574f"></path><path d="M-117.35812436789274,41.97824874892831L-59.90392302162945,192.17989118769765L129.33660599403083,94.25958856008947Z" fill="#cf4342" stroke="#cf4342"></path><path d="M129.33660599403083,94.25958856008947L-59.90392302162945,192.17989118769765L105.83188634365797,212.9011540208012Z" fill="#dd6453" stroke="#dd6453"></path><path d="M129.33660599403083,94.25958856008947L105.83188634365797,212.9011540208012L217.1936220768839,108.51182182319462Z" fill="#e26a55" stroke="#e26a55"></path><path d="M217.1936220768839,108.51182182319462L105.83188634365797,212.9011540208012L194.1634729038924,277.6565329916775Z" fill="#e98166" stroke="#e98166"></path><path d="M217.1936220768839,108.51182182319462L194.1634729038924,277.6565329916775L399.63443202897906,258.485907856375Z" fill="#f29673" stroke="#f29673"></path><path d="M217.1936220768839,108.51182182319462L399.63443202897906,258.485907856375L360.19085065461695,85.79562027007341Z" fill="#f38c66" stroke="#f38c66"></path><path d="M360.19085065461695,85.79562027007341L399.63443202897906,258.485907856375L497.59447348304093,42.48853144235909Z" fill="#f39070" stroke="#f39070"></path><path d="M497.59447348304093,42.48853144235909L399.63443202897906,258.485907856375L530.8120627887547,249.49537022039294Z" fill="#faaa83" stroke="#faaa83"></path><path d="M497.59447348304093,42.48853144235909L530.8120627887547,249.49537022039294L672.5504623912275,240.60105610638857Z" fill="#fcb38f" stroke="#fcb38f"></path><path d="M497.59447348304093,42.48853144235909L672.5504623912275,240.60105610638857L708.5290068481117,27.892060009762645Z" fill="#f4a08b" stroke="#f4a08b"></path><path d="M708.5290068481117,27.892060009762645L672.5504623912275,240.60105610638857L781.4685527142137,107.60273700580001Z" fill="#f8af99" stroke="#f8af99"></path><path d="M781.4685527142137,107.60273700580001L672.5504623912275,240.60105610638857L790.5539040081203,184.50410390272737Z" fill="#ffc4a5" stroke="#ffc4a5"></path><path d="M781.4685527142137,107.60273700580001L790.5539040081203,184.50410390272737L1034.634686820209,69.0472046379Z" fill="#f8b6a5" stroke="#f8b6a5"></path><path d="M1034.634686820209,69.0472046379L790.5539040081203,184.50410390272737L1012.4682904221117,265.67870275117457Z" fill="#ffcdb5" stroke="#ffcdb5"></path><path d="M1034.634686820209,69.0472046379L1012.4682904221117,265.67870275117457L1160.800969786942,200.74607491493225Z" fill="#fcceb7" stroke="#fcceb7"></path><path d="M1034.634686820209,69.0472046379L1160.800969786942,200.74607491493225L1070.137695595622,42.17847118154168Z" fill="#f2b2a8" stroke="#f2b2a8"></path><path d="M1286.3262001052499,25.641005476936698L1160.800969786942,200.74607491493225L1265.6231286842376,218.6740689072758Z" fill="#f0bba9" stroke="#f0bba9"></path><path d="M1286.3262001052499,25.641005476936698L1265.6231286842376,218.6740689072758L1414.3377277627587,93.55341953225434Z" fill="#e8aa9e" stroke="#e8aa9e"></path><path d="M1414.3377277627587,93.55341953225434L1265.6231286842376,218.6740689072758L1398.7455077189952,233.34035142324865Z" fill="#ecbfa8" stroke="#ecbfa8"></path><path d="M1414.3377277627587,93.55341953225434L1398.7455077189952,233.34035142324865L1556.0673208907247,239.41906426101923Z" fill="#e2b7a0" stroke="#e2b7a0"></path><path d="M1414.3377277627587,93.55341953225434L1556.0673208907247,239.41906426101923L1593.948264196515,129.20860033482313Z" fill="#d8a491" stroke="#d8a491"></path><path d="M1593.948264196515,129.20860033482313L1556.0673208907247,239.41906426101923L1671.5326580777764,253.51301425136626Z" fill="#d2ab96" stroke="#d2ab96"></path><path d="M1593.948264196515,129.20860033482313L1671.5326580777764,253.51301425136626L1696.6303432825953,95.23162063211203Z" fill="#ca9884" stroke="#ca9884"></path><path d="M1696.6303432825953,95.23162063211203L1671.5326580777764,253.51301425136626L1824.7656974662095,185.79273364506662Z" fill="#c4967f" stroke="#c4967f"></path><path d="M1696.6303432825953,95.23162063211203L1824.7656974662095,185.79273364506662L1850.7889171130955,110.83397744223475Z" fill="#b77e6f" stroke="#b77e6f"></path><path d="M1850.7889171130955,110.83397744223475L1824.7656974662095,185.79273364506662L1973.1043231207877,179.72183310426772Z" fill="#b07e6a" stroke="#b07e6a"></path><path d="M1850.7889171130955,110.83397744223475L1973.1043231207877,179.72183310426772L1984.9136739224195,66.84867641888559Z" fill="#a66a5d" stroke="#a66a5d"></path><path d="M1984.9136739224195,66.84867641888559L1973.1043231207877,179.72183310426772L2141.696973312646,59.67000092379749Z" fill="#98584e" stroke="#98584e"></path><path d="M2141.696973312646,59.67000092379749L1973.1043231207877,179.72183310426772L2206.513381646946,176.12428329885006Z" fill="#945d4c" stroke="#945d4c"></path><path d="M2141.696973312646,59.67000092379749L2206.513381646946,176.12428329885006L2273.105508070439,177.026500236243Z" fill="#895141" stroke="#895141"></path><path d="M2381.3903610315174,46.57674592919648L2273.105508070439,177.026500236243L2455.0683155469596,195.1778919249773Z" fill="#7b4433" stroke="#7b4433"></path><path d="M2381.3903610315174,46.57674592919648L2455.0683155469596,195.1778919249773L2485.5335559602827,59.18080355040729Z" fill="#76362c" stroke="#76362c"></path><path d="M2485.5335559602827,59.18080355040729L2455.0683155469596,195.1778919249773L2464.266956364736,332.6439288072288Z" fill="#805640" stroke="#805640"></path><path d="M2485.5335559602827,59.18080355040729L2464.266956364736,332.6439288072288L2495.5864655412734,623.6399743147194Z" fill="#807b70" stroke="#807b70"></path><path d="M2485.5335559602827,59.18080355040729L2495.5864655412734,623.6399743147194L2526.0525701846927,1281.430528666824Z" fill="#808080" stroke="#808080"></path><path d="M-59.90392302162945,192.17989118769765L-88.31744913943112,363.649924043566L36.52885512448847,344.4086617603898Z" fill="#d57676" stroke="#d57676"></path><path d="M-59.90392302162945,192.17989118769765L36.52885512448847,344.4086617603898L105.83188634365797,212.9011540208012Z" fill="#db756a" stroke="#db756a"></path><path d="M105.83188634365797,212.9011540208012L36.52885512448847,344.4086617603898L193.79041037522256,316.89263951964676Z" fill="#e38e7f" stroke="#e38e7f"></path><path d="M105.83188634365797,212.9011540208012L193.79041037522256,316.89263951964676L194.1634729038924,277.6565329916775Z" fill="#e8927c" stroke="#e8927c"></path><path d="M194.1634729038924,277.6565329916775L193.79041037522256,316.89263951964676L399.63443202897906,258.485907856375Z" fill="#f1a689" stroke="#f1a689"></path><path d="M399.63443202897906,258.485907856375L193.79041037522256,316.89263951964676L326.03244381956756,425.17342211678624Z" fill="#f5ba9d" stroke="#f5ba9d"></path><path d="M399.63443202897906,258.485907856375L326.03244381956756,425.17342211678624L534.3607130181044,327.42188083939254Z" fill="#f9caae" stroke="#f9caae"></path><path d="M399.63443202897906,258.485907856375L534.3607130181044,327.42188083939254L530.8120627887547,249.49537022039294Z" fill="#fbc3a5" stroke="#fbc3a5"></path><path d="M530.8120627887547,249.49537022039294L534.3607130181044,327.42188083939254L672.5504623912275,240.60105610638857Z" fill="#fccdb1" stroke="#fccdb1"></path><path d="M672.5504623912275,240.60105610638857L534.3607130181044,327.42188083939254L699.2614905629307,428.38825221173465Z" fill="#fee3cd" stroke="#fee3cd"></path><path d="M672.5504623912275,240.60105610638857L699.2614905629307,428.38825221173465L808.540653521195,364.9035310652107Z" fill="#feeddb" stroke="#feeddb"></path><path d="M672.5504623912275,240.60105610638857L808.540653521195,364.9035310652107L790.5539040081203,184.50410390272737Z" fill="#ffdac2" stroke="#ffdac2"></path><path d="M790.5539040081203,184.50410390272737L808.540653521195,364.9035310652107L1012.4682904221117,265.67870275117457Z" fill="#ffe2cf" stroke="#ffe2cf"></path><path d="M1012.4682904221117,265.67870275117457L808.540653521195,364.9035310652107L1021.5159286279231,384.3922165688127Z" fill="#fff8ec" stroke="#fff8ec"></path><path d="M1012.4682904221117,265.67870275117457L1021.5159286279231,384.3922165688127L1165.2027953602374,377.128050327301Z" fill="#fcf8ed" stroke="#fcf8ed"></path><path d="M1012.4682904221117,265.67870275117457L1165.2027953602374,377.128050327301L1160.800969786942,200.74607491493225Z" fill="#fae6d7" stroke="#fae6d7"></path><path d="M1160.800969786942,200.74607491493225L1165.2027953602374,377.128050327301L1265.6231286842376,218.6740689072758Z" fill="#f6dece" stroke="#f6dece"></path><path d="M1265.6231286842376,218.6740689072758L1165.2027953602374,377.128050327301L1302.1380008105189,412.6617157179862Z" fill="#f4eee3" stroke="#f4eee3"></path><path d="M1265.6231286842376,218.6740689072758L1302.1380008105189,412.6617157179862L1398.7455077189952,233.34035142324865Z" fill="#f0decf" stroke="#f0decf"></path><path d="M1398.7455077189952,233.34035142324865L1302.1380008105189,412.6617157179862L1431.175065357238,425.51422563381493Z" fill="#eaeae1" stroke="#eaeae1"></path><path d="M1398.7455077189952,233.34035142324865L1431.175065357238,425.51422563381493L1556.0673208907247,239.41906426101923Z" fill="#e1d2c5" stroke="#e1d2c5"></path><path d="M1556.0673208907247,239.41906426101923L1431.175065357238,425.51422563381493L1583.0848809331656,406.69042171910405Z" fill="#dbdad1" stroke="#dbdad1"></path><path d="M1556.0673208907247,239.41906426101923L1583.0848809331656,406.69042171910405L1671.5326580777764,253.51301425136626Z" fill="#d2c3b6" stroke="#d2c3b6"></path><path d="M1671.5326580777764,253.51301425136626L1583.0848809331656,406.69042171910405L1696.5127380285412,407.58681770414114Z" fill="#cdcdc3" stroke="#cdcdc3"></path><path d="M1671.5326580777764,253.51301425136626L1696.5127380285412,407.58681770414114L1877.7004628721625,399.1780737787485Z" fill="#c2c1b8" stroke="#c2c1b8"></path><path d="M1671.5326580777764,253.51301425136626L1877.7004628721625,399.1780737787485L1824.7656974662095,185.79273364506662Z" fill="#bda99a" stroke="#bda99a"></path><path d="M1824.7656974662095,185.79273364506662L1877.7004628721625,399.1780737787485L1973.1043231207877,179.72183310426772Z" fill="#b29786" stroke="#b29786"></path><path d="M1973.1043231207877,179.72183310426772L1877.7004628721625,399.1780737787485L1993.2997215539217,365.18918660469353Z" fill="#aba094" stroke="#aba094"></path><path d="M1973.1043231207877,179.72183310426772L1993.2997215539217,365.18918660469353L2156.847641207278,357.8328453283757Z" fill="#a19285" stroke="#a19285"></path><path d="M1973.1043231207877,179.72183310426772L2156.847641207278,357.8328453283757L2206.513381646946,176.12428329885006Z" fill="#987a67" stroke="#987a67"></path><path d="M2206.513381646946,176.12428329885006L2156.847641207278,357.8328453283757L2306.3753650244325,363.39568222872913Z" fill="#8c7d6f" stroke="#8c7d6f"></path><path d="M2206.513381646946,176.12428329885006L2306.3753650244325,363.39568222872913L2273.105508070439,177.026500236243Z" fill="#876956" stroke="#876956"></path><path d="M2273.105508070439,177.026500236243L2306.3753650244325,363.39568222872913L2455.0683155469596,195.1778919249773Z" fill="#806351" stroke="#806351"></path><path d="M2455.0683155469596,195.1778919249773L2306.3753650244325,363.39568222872913L2464.266956364736,332.6439288072288Z" fill="#807062" stroke="#807062"></path><path d="M-88.31744913943112,363.649924043566L-132.7701094094664,659.8120615817606L-65.12464044615626,493.56357822194695Z" fill="#d0808c" stroke="#d0808c"></path><path d="M-88.31744913943112,363.649924043566L-65.12464044615626,493.56357822194695L36.52885512448847,344.4086617603898Z" fill="#d5858b" stroke="#d5858b"></path><path d="M36.52885512448847,344.4086617603898L-65.12464044615626,493.56357822194695L79.27707446739078,539.407613184303Z" fill="#da8f93" stroke="#da8f93"></path><path d="M36.52885512448847,344.4086617603898L79.27707446739078,539.407613184303L217.25056746974587,514.3829690851271Z" fill="#e39f9b" stroke="#e39f9b"></path><path d="M36.52885512448847,344.4086617603898L217.25056746974587,514.3829690851271L193.79041037522256,316.89263951964676Z" fill="#e6a59a" stroke="#e6a59a"></path><path d="M193.79041037522256,316.89263951964676L217.25056746974587,514.3829690851271L326.03244381956756,425.17342211678624Z" fill="#efb6a4" stroke="#efb6a4"></path><path d="M326.03244381956756,425.17342211678624L217.25056746974587,514.3829690851271L401.625901395455,584.0858712606132Z" fill="#f6c2ae" stroke="#f6c2ae"></path><path d="M326.03244381956756,425.17342211678624L401.625901395455,584.0858712606132L559.7222743649036,565.1513114199042Z" fill="#f9d1bf" stroke="#f9d1bf"></path><path d="M326.03244381956756,425.17342211678624L559.7222743649036,565.1513114199042L534.3607130181044,327.42188083939254Z" fill="#fad6c1" stroke="#fad6c1"></path><path d="M534.3607130181044,327.42188083939254L559.7222743649036,565.1513114199042L699.2614905629307,428.38825221173465Z" fill="#fde5d4" stroke="#fde5d4"></path><path d="M699.2614905629307,428.38825221173465L559.7222743649036,565.1513114199042L673.8841760158539,543.0189264658839Z" fill="#feebdf" stroke="#feebdf"></path><path d="M699.2614905629307,428.38825221173465L673.8841760158539,543.0189264658839L796.6229582671076,521.3049714826047Z" fill="#fef0e6" stroke="#fef0e6"></path><path d="M699.2614905629307,428.38825221173465L796.6229582671076,521.3049714826047L808.540653521195,364.9035310652107Z" fill="#fff3e7" stroke="#fff3e7"></path><path d="M808.540653521195,364.9035310652107L796.6229582671076,521.3049714826047L1021.5159286279231,384.3922165688127Z" fill="#fff9f0" stroke="#fff9f0"></path><path d="M1021.5159286279231,384.3922165688127L796.6229582671076,521.3049714826047L1023.8335108291358,535.0981196667999Z" fill="#fffdf8" stroke="#fffdf8"></path><path d="M1021.5159286279231,384.3922165688127L1023.8335108291358,535.0981196667999L1087.5123223755509,467.7984386589378Z" fill="#fdfdf9" stroke="#fdfdf9"></path><path d="M1021.5159286279231,384.3922165688127L1087.5123223755509,467.7984386589378L1165.2027953602374,377.128050327301Z" fill="#fbfbf4" stroke="#fbfbf4"></path><path d="M1165.2027953602374,377.128050327301L1087.5123223755509,467.7984386589378L1226.4200877025723,555.2461671363562Z" fill="#f8f8f4" stroke="#f8f8f4"></path><path d="M1165.2027953602374,377.128050327301L1226.4200877025723,555.2461671363562L1302.1380008105189,412.6617157179862Z" fill="#f4f4f0" stroke="#f4f4f0"></path><path d="M1302.1380008105189,412.6617157179862L1226.4200877025723,555.2461671363562L1381.6713375225663,539.6450997423381Z" fill="#f1f1ef" stroke="#f1f1ef"></path><path d="M1302.1380008105189,412.6617157179862L1381.6713375225663,539.6450997423381L1431.175065357238,425.51422563381493Z" fill="#ebebe7" stroke="#ebebe7"></path><path d="M1431.175065357238,425.51422563381493L1381.6713375225663,539.6450997423381L1583.6281095910817,523.9715951308608Z" fill="#e1e1df" stroke="#e1e1df"></path><path d="M1431.175065357238,425.51422563381493L1583.6281095910817,523.9715951308608L1583.0848809331656,406.69042171910405Z" fill="#dadad5" stroke="#dadad5"></path><path d="M1583.0848809331656,406.69042171910405L1583.6281095910817,523.9715951308608L1696.5127380285412,407.58681770414114Z" fill="#d0d0cc" stroke="#d0d0cc"></path><path d="M1696.5127380285412,407.58681770414114L1583.6281095910817,523.9715951308608L1780.2547423169017,516.0706659033895Z" fill="#c9c9c6" stroke="#c9c9c6"></path><path d="M1696.5127380285412,407.58681770414114L1780.2547423169017,516.0706659033895L1877.7004628721625,399.1780737787485Z" fill="#bebeb9" stroke="#bebeb9"></path><path d="M1877.7004628721625,399.1780737787485L1780.2547423169017,516.0706659033895L1928.26404992491,504.0850535687059Z" fill="#b5b5b2" stroke="#b5b5b2"></path><path d="M1877.7004628721625,399.1780737787485L1928.26404992491,504.0850535687059L1993.2997215539217,365.18918660469353Z" fill="#adada7" stroke="#adada7"></path><path d="M1993.2997215539217,365.18918660469353L1928.26404992491,504.0850535687059L2055.9975190646946,527.5185703765601Z" fill="#a6a6a3" stroke="#a6a6a3"></path><path d="M1993.2997215539217,365.18918660469353L2055.9975190646946,527.5185703765601L2156.847641207278,357.8328453283757Z" fill="#9d9d97" stroke="#9d9d97"></path><path d="M2156.847641207278,357.8328453283757L2055.9975190646946,527.5185703765601L2126.3074974529445,570.9064215514809Z" fill="#989896" stroke="#989896"></path><path d="M2156.847641207278,357.8328453283757L2126.3074974529445,570.9064215514809L2306.3753650244325,363.39568222872913Z" fill="#8f8f89" stroke="#8f8f89"></path><path d="M2306.3753650244325,363.39568222872913L2126.3074974529445,570.9064215514809L2375.288546103984,508.7233484443277Z" fill="#868683" stroke="#868683"></path><path d="M2306.3753650244325,363.39568222872913L2375.288546103984,508.7233484443277L2416.465113731101,484.2816617153585Z" fill="#80807b" stroke="#80807b"></path><path d="M2306.3753650244325,363.39568222872913L2416.465113731101,484.2816617153585L2464.266956364736,332.6439288072288Z" fill="#808079" stroke="#808079"></path><path d="M2464.266956364736,332.6439288072288L2416.465113731101,484.2816617153585L2495.5864655412734,623.6399743147194Z" fill="#80807d" stroke="#80807d"></path><path d="M-65.12464044615626,493.56357822194695L-132.7701094094664,659.8120615817606L79.27707446739078,539.407613184303Z" fill="#d58592" stroke="#d58592"></path><path d="M79.27707446739078,539.407613184303L-132.7701094094664,659.8120615817606L94.35826820321381,654.5858875941485Z" fill="#da8e96" stroke="#da8e96"></path><path d="M79.27707446739078,539.407613184303L94.35826820321381,654.5858875941485L217.25056746974587,514.3829690851271Z" fill="#e5a2a0" stroke="#e5a2a0"></path><path d="M217.25056746974587,514.3829690851271L94.35826820321381,654.5858875941485L174.27119934931397,708.2585960626602Z" fill="#e8a8a3" stroke="#e8a8a3"></path><path d="M217.25056746974587,514.3829690851271L174.27119934931397,708.2585960626602L401.625901395455,584.0858712606132Z" fill="#f1b9ab" stroke="#f1b9ab"></path><path d="M401.625901395455,584.0858712606132L174.27119934931397,708.2585960626602L410.8998560439795,655.4567169863731Z" fill="#f7c4b1" stroke="#f7c4b1"></path><path d="M401.625901395455,584.0858712606132L410.8998560439795,655.4567169863731L531.8435253482312,682.0479304343462Z" fill="#fad3c2" stroke="#fad3c2"></path><path d="M401.625901395455,584.0858712606132L531.8435253482312,682.0479304343462L559.7222743649036,565.1513114199042Z" fill="#fbd9ca" stroke="#fbd9ca"></path><path d="M559.7222743649036,565.1513114199042L531.8435253482312,682.0479304343462L716.7980201728642,659.1432599443942Z" fill="#fde6da" stroke="#fde6da"></path><path d="M559.7222743649036,565.1513114199042L716.7980201728642,659.1432599443942L673.8841760158539,543.0189264658839Z" fill="#feece1" stroke="#feece1"></path><path d="M673.8841760158539,543.0189264658839L716.7980201728642,659.1432599443942L796.6229582671076,521.3049714826047Z" fill="#fef1e9" stroke="#fef1e9"></path><path d="M796.6229582671076,521.3049714826047L716.7980201728642,659.1432599443942L779.6369027998298,703.9955314993858Z" fill="#fff3ec" stroke="#fff3ec"></path><path d="M796.6229582671076,521.3049714826047L779.6369027998298,703.9955314993858L1000.1644655596465,684.9580371379852Z" fill="#fff8f4" stroke="#fff8f4"></path><path d="M796.6229582671076,521.3049714826047L1000.1644655596465,684.9580371379852L1023.8335108291358,535.0981196667999Z" fill="#fffcfb" stroke="#fffcfb"></path><path d="M1023.8335108291358,535.0981196667999L1000.1644655596465,684.9580371379852L1178.0397367011756,623.9116672798991Z" fill="#fcfcfc" stroke="#fcfcfc"></path><path d="M1023.8335108291358,535.0981196667999L1178.0397367011756,623.9116672798991L1087.5123223755509,467.7984386589378Z" fill="#fbfbfb" stroke="#fbfbfb"></path><path d="M1087.5123223755509,467.7984386589378L1178.0397367011756,623.9116672798991L1226.4200877025723,555.2461671363562Z" fill="#f7f7f7" stroke="#f7f7f7"></path><path d="M1226.4200877025723,555.2461671363562L1178.0397367011756,623.9116672798991L1217.3425265494734,691.369758322835Z" fill="#f5f5f5" stroke="#f5f5f5"></path><path d="M1226.4200877025723,555.2461671363562L1217.3425265494734,691.369758322835L1387.8810579702258,658.2379360031337Z" fill="#f2f2f2" stroke="#f2f2f2"></path><path d="M1226.4200877025723,555.2461671363562L1387.8810579702258,658.2379360031337L1381.6713375225663,539.6450997423381Z" fill="#efefef" stroke="#efefef"></path><path d="M1381.6713375225663,539.6450997423381L1387.8810579702258,658.2379360031337L1583.6281095910817,523.9715951308608Z" fill="#e3e3e3" stroke="#e3e3e3"></path><path d="M1583.6281095910817,523.9715951308608L1387.8810579702258,658.2379360031337L1625.4955917410553,702.1000127959996Z" fill="#dadada" stroke="#dadada"></path><path d="M1583.6281095910817,523.9715951308608L1625.4955917410553,702.1000127959996L1706.970071559772,629.86856745556Z" fill="#cecece" stroke="#cecece"></path><path d="M1583.6281095910817,523.9715951308608L1706.970071559772,629.86856745556L1780.2547423169017,516.0706659033895Z" fill="#c9c9c9" stroke="#c9c9c9"></path><path d="M1780.2547423169017,516.0706659033895L1706.970071559772,629.86856745556L1832.665376700461,716.7905928567052Z" fill="#bfbfbf" stroke="#bfbfbf"></path><path d="M1780.2547423169017,516.0706659033895L1832.665376700461,716.7905928567052L1928.26404992491,504.0850535687059Z" fill="#b7b7b7" stroke="#b7b7b7"></path><path d="M1928.26404992491,504.0850535687059L1832.665376700461,716.7905928567052L1981.539686350152,683.8265433814377Z" fill="#afafaf" stroke="#afafaf"></path><path d="M1928.26404992491,504.0850535687059L1981.539686350152,683.8265433814377L2055.9975190646946,527.5185703765601Z" fill="#a7a7a7" stroke="#a7a7a7"></path><path d="M2055.9975190646946,527.5185703765601L1981.539686350152,683.8265433814377L2126.3074974529445,570.9064215514809Z" fill="#9f9f9f" stroke="#9f9f9f"></path><path d="M2126.3074974529445,570.9064215514809L1981.539686350152,683.8265433814377L2171.3280197884887,655.7117507234216Z" fill="#9b9b9b" stroke="#9b9b9b"></path><path d="M2126.3074974529445,570.9064215514809L2171.3280197884887,655.7117507234216L2325.0507699139416,629.7413632180542Z" fill="#8d8d8d" stroke="#8d8d8d"></path><path d="M2126.3074974529445,570.9064215514809L2325.0507699139416,629.7413632180542L2375.288546103984,508.7233484443277Z" fill="#868686" stroke="#868686"></path><path d="M2375.288546103984,508.7233484443277L2325.0507699139416,629.7413632180542L2495.5864655412734,623.6399743147194Z" fill="#808080" stroke="#808080"></path><path d="M2375.288546103984,508.7233484443277L2495.5864655412734,623.6399743147194L2416.465113731101,484.2816617153585Z" fill="#808080" stroke="#808080"></path><path d="M-132.7701094094664,659.8120615817606L-134.270413890481,1334.0628291852772L-53.61767423339188,806.5447582304478Z" fill="#a1525e" stroke="#a1525e"></path><path d="M-132.7701094094664,659.8120615817606L-53.61767423339188,806.5447582304478L94.35826820321381,654.5858875941485Z" fill="#d68693" stroke="#d68693"></path><path d="M94.35826820321381,654.5858875941485L-53.61767423339188,806.5447582304478L32.36014690250158,806.5980198886245Z" fill="#d3888f" stroke="#d3888f"></path><path d="M94.35826820321381,654.5858875941485L32.36014690250158,806.5980198886245L174.27119934931397,708.2585960626602Z" fill="#e09b9c" stroke="#e09b9c"></path><path d="M174.27119934931397,708.2585960626602L32.36014690250158,806.5980198886245L208.2736883405596,829.890945777297Z" fill="#d89794" stroke="#d89794"></path><path d="M174.27119934931397,708.2585960626602L208.2736883405596,829.890945777297L355.6860526185483,839.0142060723156Z" fill="#e0a79a" stroke="#e0a79a"></path><path d="M174.27119934931397,708.2585960626602L355.6860526185483,839.0142060723156L410.8998560439795,655.4567169863731Z" fill="#f2beac" stroke="#f2beac"></path><path d="M410.8998560439795,655.4567169863731L355.6860526185483,839.0142060723156L531.8435253482312,682.0479304343462Z" fill="#f7cfbe" stroke="#f7cfbe"></path><path d="M531.8435253482312,682.0479304343462L355.6860526185483,839.0142060723156L517.0174271520227,884.996352000162Z" fill="#e9c4b4" stroke="#e9c4b4"></path><path d="M531.8435253482312,682.0479304343462L517.0174271520227,884.996352000162L682.5844591297209,845.0648871157318Z" fill="#ead1c4" stroke="#ead1c4"></path><path d="M531.8435253482312,682.0479304343462L682.5844591297209,845.0648871157318L716.7980201728642,659.1432599443942Z" fill="#fbe8de" stroke="#fbe8de"></path><path d="M716.7980201728642,659.1432599443942L682.5844591297209,845.0648871157318L766.0567846242338,773.0877749249339Z" fill="#f6e8e0" stroke="#f6e8e0"></path><path d="M716.7980201728642,659.1432599443942L766.0567846242338,773.0877749249339L779.6369027998298,703.9955314993858Z" fill="#fff2eb" stroke="#fff2eb"></path><path d="M779.6369027998298,703.9955314993858L766.0567846242338,773.0877749249339L983.0908763408661,808.508083820343Z" fill="#f6eee9" stroke="#f6eee9"></path><path d="M779.6369027998298,703.9955314993858L983.0908763408661,808.508083820343L1000.1644655596465,684.9580371379852Z" fill="#fcf8f6" stroke="#fcf8f6"></path><path d="M1000.1644655596465,684.9580371379852L983.0908763408661,808.508083820343L1100.013339696452,824.0380283910781Z" fill="#f2f2f2" stroke="#f2f2f2"></path><path d="M1000.1644655596465,684.9580371379852L1100.013339696452,824.0380283910781L1217.3425265494734,691.369758322835Z" fill="#f7f7f7" stroke="#f7f7f7"></path><path d="M1000.1644655596465,684.9580371379852L1217.3425265494734,691.369758322835L1178.0397367011756,623.9116672798991Z" fill="#f9f9f9" stroke="#f9f9f9"></path><path d="M1217.3425265494734,691.369758322835L1100.013339696452,824.0380283910781L1325.4010153748095,796.6443951241672Z" fill="#eaeaea" stroke="#eaeaea"></path><path d="M1217.3425265494734,691.369758322835L1325.4010153748095,796.6443951241672L1387.8810579702258,658.2379360031337Z" fill="#f1f1f1" stroke="#f1f1f1"></path><path d="M1387.8810579702258,658.2379360031337L1325.4010153748095,796.6443951241672L1471.8405752722174,784.9798630177975Z" fill="#e3e3e3" stroke="#e3e3e3"></path><path d="M1387.8810579702258,658.2379360031337L1471.8405752722174,784.9798630177975L1625.4955917410553,702.1000127959996Z" fill="#dedede" stroke="#dedede"></path><path d="M1625.4955917410553,702.1000127959996L1471.8405752722174,784.9798630177975L1574.4367262441665,845.2412928454578Z" fill="#cbcbcb" stroke="#cbcbcb"></path><path d="M1625.4955917410553,702.1000127959996L1574.4367262441665,845.2412928454578L1755.8359402511269,774.6141286566854Z" fill="#c2c2c2" stroke="#c2c2c2"></path><path d="M1625.4955917410553,702.1000127959996L1755.8359402511269,774.6141286566854L1706.970071559772,629.86856745556Z" fill="#c8c8c8" stroke="#c8c8c8"></path><path d="M1706.970071559772,629.86856745556L1755.8359402511269,774.6141286566854L1832.665376700461,716.7905928567052Z" fill="#c0c0c0" stroke="#c0c0c0"></path><path d="M1832.665376700461,716.7905928567052L1755.8359402511269,774.6141286566854L1819.3554297834635,772.8563264943659Z" fill="#b4b4b4" stroke="#b4b4b4"></path><path d="M1832.665376700461,716.7905928567052L1819.3554297834635,772.8563264943659L1981.539686350152,683.8265433814377Z" fill="#b2b2b2" stroke="#b2b2b2"></path><path d="M1981.539686350152,683.8265433814377L1819.3554297834635,772.8563264943659L1984.734055576846,873.3500701189041Z" fill="#a1a1a1" stroke="#a1a1a1"></path><path d="M1981.539686350152,683.8265433814377L1984.734055576846,873.3500701189041L2221.7608537897468,774.1772089060396Z" fill="#929292" stroke="#929292"></path><path d="M1981.539686350152,683.8265433814377L2221.7608537897468,774.1772089060396L2171.3280197884887,655.7117507234216Z" fill="#979797" stroke="#979797"></path><path d="M2171.3280197884887,655.7117507234216L2221.7608537897468,774.1772089060396L2325.0507699139416,629.7413632180542Z" fill="#8a8a8a" stroke="#8a8a8a"></path><path d="M2325.0507699139416,629.7413632180542L2221.7608537897468,774.1772089060396L2317.127477126196,834.4510592054576Z" fill="#7e7e7e" stroke="#7e7e7e"></path><path d="M2325.0507699139416,629.7413632180542L2317.127477126196,834.4510592054576L2490.7231080997735,842.1554298978299Z" fill="#757575" stroke="#757575"></path><path d="M2325.0507699139416,629.7413632180542L2490.7231080997735,842.1554298978299L2495.5864655412734,623.6399743147194Z" fill="#808080" stroke="#808080"></path><path d="M2495.5864655412734,623.6399743147194L2490.7231080997735,842.1554298978299L2526.0525701846927,1281.430528666824Z" fill="#565656" stroke="#565656"></path><path d="M-53.61767423339188,806.5447582304478L-134.270413890481,1334.0628291852772L-17.80691558495164,1004.0761294774711Z" fill="#873545" stroke="#873545"></path><path d="M-53.61767423339188,806.5447582304478L-17.80691558495164,1004.0761294774711L32.36014690250158,806.5980198886245Z" fill="#b86a74" stroke="#b86a74"></path><path d="M32.36014690250158,806.5980198886245L-17.80691558495164,1004.0761294774711L40.95011327415705,998.8335493952036Z" fill="#ac6068" stroke="#ac6068"></path><path d="M32.36014690250158,806.5980198886245L40.95011327415705,998.8335493952036L208.2736883405596,829.890945777297Z" fill="#c07b7c" stroke="#c07b7c"></path><path d="M208.2736883405596,829.890945777297L40.95011327415705,998.8335493952036L252.78750305995345,1016.6104748100042Z" fill="#b77772" stroke="#b77772"></path><path d="M208.2736883405596,829.890945777297L252.78750305995345,1016.6104748100042L355.6860526185483,839.0142060723156Z" fill="#cd9687" stroke="#cd9687"></path><path d="M355.6860526185483,839.0142060723156L252.78750305995345,1016.6104748100042L398.66446293890476,1032.209384785965Z" fill="#c2907c" stroke="#c2907c"></path><path d="M355.6860526185483,839.0142060723156L398.66446293890476,1032.209384785965L517.0174271520227,884.996352000162Z" fill="#cfa594" stroke="#cfa594"></path><path d="M517.0174271520227,884.996352000162L398.66446293890476,1032.209384785965L583.5615888051689,929.0147286560386Z" fill="#c9a798" stroke="#c9a798"></path><path d="M517.0174271520227,884.996352000162L583.5615888051689,929.0147286560386L682.5844591297209,845.0648871157318Z" fill="#dac2b6" stroke="#dac2b6"></path><path d="M682.5844591297209,845.0648871157318L583.5615888051689,929.0147286560386L767.9507843311876,968.4323124121875Z" fill="#d5c5bb" stroke="#d5c5bb"></path><path d="M682.5844591297209,845.0648871157318L767.9507843311876,968.4323124121875L766.0567846242338,773.0877749249339Z" fill="#e1d4cc" stroke="#e1d4cc"></path><path d="M766.0567846242338,773.0877749249339L767.9507843311876,968.4323124121875L958.8846675027162,964.9921964854002Z" fill="#d9d0cb" stroke="#d9d0cb"></path><path d="M766.0567846242338,773.0877749249339L958.8846675027162,964.9921964854002L983.0908763408661,808.508083820343Z" fill="#e4dfdc" stroke="#e4dfdc"></path><path d="M983.0908763408661,808.508083820343L958.8846675027162,964.9921964854002L1100.013339696452,824.0380283910781Z" fill="#e0e0e0" stroke="#e0e0e0"></path><path d="M1100.013339696452,824.0380283910781L958.8846675027162,964.9921964854002L1131.0946866218,980.0328836962581Z" fill="#d1d1d1" stroke="#d1d1d1"></path><path d="M1100.013339696452,824.0380283910781L1131.0946866218,980.0328836962581L1325.4010153748095,796.6443951241672Z" fill="#d8d8d8" stroke="#d8d8d8"></path><path d="M1325.4010153748095,796.6443951241672L1131.0946866218,980.0328836962581L1318.3817527256906,980.4981192201376Z" fill="#c8c8c8" stroke="#c8c8c8"></path><path d="M1325.4010153748095,796.6443951241672L1318.3817527256906,980.4981192201376L1457.3305176012218,982.9343713447452Z" fill="#c1c1c1" stroke="#c1c1c1"></path><path d="M1325.4010153748095,796.6443951241672L1457.3305176012218,982.9343713447452L1471.8405752722174,784.9798630177975Z" fill="#cacaca" stroke="#cacaca"></path><path d="M1471.8405752722174,784.9798630177975L1457.3305176012218,982.9343713447452L1574.4367262441665,845.2412928454578Z" fill="#bebebe" stroke="#bebebe"></path><path d="M1574.4367262441665,845.2412928454578L1457.3305176012218,982.9343713447452L1617.9936706088483,968.0278914794326Z" fill="#aaaaaa" stroke="#aaaaaa"></path><path d="M1574.4367262441665,845.2412928454578L1617.9936706088483,968.0278914794326L1755.8359402511269,774.6141286566854Z" fill="#afafaf" stroke="#afafaf"></path><path d="M1755.8359402511269,774.6141286566854L1617.9936706088483,968.0278914794326L1782.3702668119222,969.4000603538007Z" fill="#9f9f9f" stroke="#9f9f9f"></path><path d="M1755.8359402511269,774.6141286566854L1782.3702668119222,969.4000603538007L1819.3554297834635,772.8563264943659Z" fill="#a5a5a5" stroke="#a5a5a5"></path><path d="M1819.3554297834635,772.8563264943659L1782.3702668119222,969.4000603538007L1917.0649716630578,920.611948594451Z" fill="#959595" stroke="#959595"></path><path d="M1819.3554297834635,772.8563264943659L1917.0649716630578,920.611948594451L1984.734055576846,873.3500701189041Z" fill="#939393" stroke="#939393"></path><path d="M1984.734055576846,873.3500701189041L1917.0649716630578,920.611948594451L2031.412586281076,1029.4995615351945Z" fill="#787878" stroke="#787878"></path><path d="M1984.734055576846,873.3500701189041L2031.412586281076,1029.4995615351945L2183.0948472116143,935.0960473716259Z" fill="#6d6d6d" stroke="#6d6d6d"></path><path d="M1984.734055576846,873.3500701189041L2183.0948472116143,935.0960473716259L2221.7608537897468,774.1772089060396Z" fill="#797979" stroke="#797979"></path><path d="M2221.7608537897468,774.1772089060396L2183.0948472116143,935.0960473716259L2317.127477126196,834.4510592054576Z" fill="#6f6f6f" stroke="#6f6f6f"></path><path d="M2317.127477126196,834.4510592054576L2183.0948472116143,935.0960473716259L2295.0004191789776,950.6035644840449Z" fill="#5f5f5f" stroke="#5f5f5f"></path><path d="M2317.127477126196,834.4510592054576L2295.0004191789776,950.6035644840449L2490.7231080997735,842.1554298978299Z" fill="#5f5f5f" stroke="#5f5f5f"></path><path d="M2490.7231080997735,842.1554298978299L2295.0004191789776,950.6035644840449L2477.484729140997,995.1442993059754Z" fill="#535353" stroke="#535353"></path><path d="M2490.7231080997735,842.1554298978299L2477.484729140997,995.1442993059754L2526.0525701846927,1281.430528666824Z" fill="#373737" stroke="#373737"></path><path d="M-17.80691558495164,1004.0761294774711L-134.270413890481,1334.0628291852772L-16.63511392660439,1088.5818905755877Z" fill="#71202e" stroke="#71202e"></path><path d="M-17.80691558495164,1004.0761294774711L-16.63511392660439,1088.5818905755877L40.95011327415705,998.8335493952036Z" fill="#92464f" stroke="#92464f"></path><path d="M40.95011327415705,998.8335493952036L-16.63511392660439,1088.5818905755877L131.23203492723405,1093.2359738554806Z" fill="#90474c" stroke="#90474c"></path><path d="M40.95011327415705,998.8335493952036L131.23203492723405,1093.2359738554806L252.78750305995345,1016.6104748100042Z" fill="#9e5c59" stroke="#9e5c59"></path><path d="M252.78750305995345,1016.6104748100042L131.23203492723405,1093.2359738554806L253.06568060070276,1076.8551278673112Z" fill="#9e6258" stroke="#9e6258"></path><path d="M252.78750305995345,1016.6104748100042L253.06568060070276,1076.8551278673112L352.23068475723267,1073.8946370128542Z" fill="#a77060" stroke="#a77060"></path><path d="M252.78750305995345,1016.6104748100042L352.23068475723267,1073.8946370128542L398.66446293890476,1032.209384785965Z" fill="#ae7c68" stroke="#ae7c68"></path><path d="M398.66446293890476,1032.209384785965L352.23068475723267,1073.8946370128542L505.07495761848986,1108.1413480639458Z" fill="#a97f6d" stroke="#a97f6d"></path><path d="M398.66446293890476,1032.209384785965L505.07495761848986,1108.1413480639458L583.5615888051689,929.0147286560386Z" fill="#b69485" stroke="#b69485"></path><path d="M583.5615888051689,929.0147286560386L505.07495761848986,1108.1413480639458L628.7322845309973,1026.916145766154Z" fill="#b89e91" stroke="#b89e91"></path><path d="M583.5615888051689,929.0147286560386L628.7322845309973,1026.916145766154L767.9507843311876,968.4323124121875Z" fill="#c6b4aa" stroke="#c6b4aa"></path><path d="M628.7322845309973,1026.916145766154L505.07495761848986,1108.1413480639458L636.9701216742396,1116.458918871358Z" fill="#a99084" stroke="#a99084"></path><path d="M628.7322845309973,1026.916145766154L636.9701216742396,1116.458918871358L767.9507843311876,968.4323124121875Z" fill="#b6a69c" stroke="#b6a69c"></path><path d="M767.9507843311876,968.4323124121875L636.9701216742396,1116.458918871358L865.5322789773345,1144.7232032753527Z" fill="#ada099" stroke="#ada099"></path><path d="M767.9507843311876,968.4323124121875L865.5322789773345,1144.7232032753527L958.8846675027162,964.9921964854002Z" fill="#bab3af" stroke="#bab3af"></path><path d="M958.8846675027162,964.9921964854002L865.5322789773345,1144.7232032753527L1028.4361445903778,1137.2068299539387Z" fill="#aca9a8" stroke="#aca9a8"></path><path d="M958.8846675027162,964.9921964854002L1028.4361445903778,1137.2068299539387L1131.0946866218,980.0328836962581Z" fill="#b8b8b8" stroke="#b8b8b8"></path><path d="M1131.0946866218,980.0328836962581L1028.4361445903778,1137.2068299539387L1113.4057221841067,1170.1576711423695Z" fill="#a4a4a4" stroke="#a4a4a4"></path><path d="M1131.0946866218,980.0328836962581L1113.4057221841067,1170.1576711423695L1330.9578019659966,1137.152380719781Z" fill="#9f9f9f" stroke="#9f9f9f"></path><path d="M1131.0946866218,980.0328836962581L1330.9578019659966,1137.152380719781L1318.3817527256906,980.4981192201376Z" fill="#acacac" stroke="#acacac"></path><path d="M1318.3817527256906,980.4981192201376L1330.9578019659966,1137.152380719781L1370.3427565097809,1124.6200414281338Z" fill="#9b9b9b" stroke="#9b9b9b"></path><path d="M1318.3817527256906,980.4981192201376L1370.3427565097809,1124.6200414281338L1457.3305176012218,982.9343713447452Z" fill="#a4a4a4" stroke="#a4a4a4"></path><path d="M1457.3305176012218,982.9343713447452L1370.3427565097809,1124.6200414281338L1577.046573171392,1075.1717961765826Z" fill="#939393" stroke="#939393"></path><path d="M1457.3305176012218,982.9343713447452L1577.046573171392,1075.1717961765826L1617.9936706088483,968.0278914794326Z" fill="#979797" stroke="#979797"></path><path d="M1617.9936706088483,968.0278914794326L1577.046573171392,1075.1717961765826L1666.2812820822,1175.5818388424814Z" fill="#7f7f7f" stroke="#7f7f7f"></path><path d="M1617.9936706088483,968.0278914794326L1666.2812820822,1175.5818388424814L1782.3702668119222,969.4000603538007Z" fill="#818181" stroke="#818181"></path><path d="M1782.3702668119222,969.4000603538007L1666.2812820822,1175.5818388424814L1902.9684725403786,1126.49474658072Z" fill="#686868" stroke="#686868"></path><path d="M1782.3702668119222,969.4000603538007L1902.9684725403786,1126.49474658072L1917.0649716630578,920.611948594451Z" fill="#747474" stroke="#747474"></path><path d="M1917.0649716630578,920.611948594451L1902.9684725403786,1126.49474658072L1991.9596042111516,1096.9765879400074Z" fill="#616161" stroke="#616161"></path><path d="M1917.0649716630578,920.611948594451L1991.9596042111516,1096.9765879400074L2031.412586281076,1029.4995615351945Z" fill="#656565" stroke="#656565"></path><path d="M2031.412586281076,1029.4995615351945L1991.9596042111516,1096.9765879400074L2134.6291582100093,1072.9199422895908Z" fill="#505050" stroke="#505050"></path><path d="M2031.412586281076,1029.4995615351945L2134.6291582100093,1072.9199422895908L2183.0948472116143,935.0960473716259Z" fill="#565656" stroke="#565656"></path><path d="M2183.0948472116143,935.0960473716259L2134.6291582100093,1072.9199422895908L2295.0004191789776,950.6035644840449Z" fill="#535353" stroke="#535353"></path><path d="M2295.0004191789776,950.6035644840449L2134.6291582100093,1072.9199422895908L2380.0529448408633,1141.3617567904294Z" fill="#3a3a3a" stroke="#3a3a3a"></path><path d="M2295.0004191789776,950.6035644840449L2380.0529448408633,1141.3617567904294L2422.013116031885,1073.7350849155337Z" fill="#333333" stroke="#333333"></path><path d="M2295.0004191789776,950.6035644840449L2422.013116031885,1073.7350849155337L2477.484729140997,995.1442993059754Z" fill="#3f3f3f" stroke="#3f3f3f"></path><path d="M2477.484729140997,995.1442993059754L2422.013116031885,1073.7350849155337L2526.0525701846927,1281.430528666824Z" fill="#242424" stroke="#242424"></path><path d="M-16.63511392660439,1088.5818905755877L-134.270413890481,1334.0628291852772L44.264843221753836,1267.735100314021Z" fill="#5d0d1a" stroke="#5d0d1a"></path><path d="M-16.63511392660439,1088.5818905755877L44.264843221753836,1267.735100314021L131.23203492723405,1093.2359738554806Z" fill="#793035" stroke="#793035"></path><path d="M131.23203492723405,1093.2359738554806L44.264843221753836,1267.735100314021L188.39424692094326,1260.1289408281446Z" fill="#712e2d" stroke="#712e2d"></path><path d="M131.23203492723405,1093.2359738554806L188.39424692094326,1260.1289408281446L253.06568060070276,1076.8551278673112Z" fill="#884a43" stroke="#884a43"></path><path d="M253.06568060070276,1076.8551278673112L188.39424692094326,1260.1289408281446L428.6443104967475,1218.4127699118108Z" fill="#865140" stroke="#865140"></path><path d="M253.06568060070276,1076.8551278673112L428.6443104967475,1218.4127699118108L352.23068475723267,1073.8946370128542Z" fill="#9a6955" stroke="#9a6955"></path><path d="M352.23068475723267,1073.8946370128542L428.6443104967475,1218.4127699118108L505.07495761848986,1108.1413480639458Z" fill="#99715f" stroke="#99715f"></path><path d="M505.07495761848986,1108.1413480639458L428.6443104967475,1218.4127699118108L550.5486584734172,1293.998658573255Z" fill="#886657" stroke="#886657"></path><path d="M505.07495761848986,1108.1413480639458L550.5486584734172,1293.998658573255L636.9701216742396,1116.458918871358Z" fill="#92776a" stroke="#92776a"></path><path d="M636.9701216742396,1116.458918871358L550.5486584734172,1293.998658573255L674.5494491513819,1312.6874566543847Z" fill="#826d62" stroke="#826d62"></path><path d="M636.9701216742396,1116.458918871358L674.5494491513819,1312.6874566543847L865.5322789773345,1144.7232032753527Z" fill="#90827a" stroke="#90827a"></path><path d="M865.5322789773345,1144.7232032753527L674.5494491513819,1312.6874566543847L811.9079254288226,1317.9139262158424Z" fill="#7f746e" stroke="#7f746e"></path><path d="M865.5322789773345,1144.7232032753527L811.9079254288226,1317.9139262158424L929.9746878258884,1270.2713616751134Z" fill="#837c79" stroke="#837c79"></path><path d="M865.5322789773345,1144.7232032753527L929.9746878258884,1270.2713616751134L1028.4361445903778,1137.2068299539387Z" fill="#928f8e" stroke="#928f8e"></path><path d="M1028.4361445903778,1137.2068299539387L929.9746878258884,1270.2713616751134L1113.4057221841067,1170.1576711423695Z" fill="#8f8f8f" stroke="#8f8f8f"></path><path d="M1113.4057221841067,1170.1576711423695L929.9746878258884,1270.2713616751134L1104.933816427365,1334.7395459655672Z" fill="#7d7d7d" stroke="#7d7d7d"></path><path d="M1113.4057221841067,1170.1576711423695L1104.933816427365,1334.7395459655672L1241.5160843823105,1326.1724076233804Z" fill="#787878" stroke="#787878"></path><path d="M1113.4057221841067,1170.1576711423695L1241.5160843823105,1326.1724076233804L1330.9578019659966,1137.152380719781Z" fill="#818181" stroke="#818181"></path><path d="M1330.9578019659966,1137.152380719781L1241.5160843823105,1326.1724076233804L1433.759485250339,1259.7359158471227Z" fill="#747474" stroke="#747474"></path><path d="M1330.9578019659966,1137.152380719781L1433.759485250339,1259.7359158471227L1370.3427565097809,1124.6200414281338Z" fill="#808080" stroke="#808080"></path><path d="M1370.3427565097809,1124.6200414281338L1433.759485250339,1259.7359158471227L1527.6371815055609,1247.0827758964151Z" fill="#707070" stroke="#707070"></path><path d="M1370.3427565097809,1124.6200414281338L1527.6371815055609,1247.0827758964151L1577.046573171392,1075.1717961765826Z" fill="#7a7a7a" stroke="#7a7a7a"></path><path d="M1577.046573171392,1075.1717961765826L1527.6371815055609,1247.0827758964151L1666.2812820822,1175.5818388424814Z" fill="#6b6b6b" stroke="#6b6b6b"></path><path d="M1666.2812820822,1175.5818388424814L1527.6371815055609,1247.0827758964151L1701.250019716099,1329.0423616580665Z" fill="#525252" stroke="#525252"></path><path d="M1666.2812820822,1175.5818388424814L1701.250019716099,1329.0423616580665L1909.96766240336,1270.6897144764662Z" fill="#414141" stroke="#414141"></path><path d="M1666.2812820822,1175.5818388424814L1909.96766240336,1270.6897144764662L1902.9684725403786,1126.49474658072Z" fill="#4b4b4b" stroke="#4b4b4b"></path><path d="M1902.9684725403786,1126.49474658072L1909.96766240336,1270.6897144764662L2009.3179144430906,1275.3724889270961Z" fill="#353535" stroke="#353535"></path><path d="M1902.9684725403786,1126.49474658072L2009.3179144430906,1275.3724889270961L1991.9596042111516,1096.9765879400074Z" fill="#404040" stroke="#404040"></path><path d="M1991.9596042111516,1096.9765879400074L2009.3179144430906,1275.3724889270961L2134.6291582100093,1072.9199422895908Z" fill="#3c3c3c" stroke="#3c3c3c"></path><path d="M2134.6291582100093,1072.9199422895908L2009.3179144430906,1275.3724889270961L2139.506664974615,1291.7880259640515Z" fill="#262626" stroke="#262626"></path><path d="M2134.6291582100093,1072.9199422895908L2139.506664974615,1291.7880259640515L2380.0529448408633,1141.3617567904294Z" fill="#232323" stroke="#232323"></path><path d="M2380.0529448408633,1141.3617567904294L2139.506664974615,1291.7880259640515L2362.6820934657007,1286.3377763237804Z" fill="#090909" stroke="#090909"></path><path d="M2380.0529448408633,1141.3617567904294L2362.6820934657007,1286.3377763237804L2526.0525701846927,1281.430528666824Z" fill="#060606" stroke="#060606"></path><path d="M2380.0529448408633,1141.3617567904294L2526.0525701846927,1281.430528666824L2422.013116031885,1073.7350849155337Z" fill="#171717" stroke="#171717"></path><path d="M-134.270413890481,1334.0628291852772L-49.97012559324503,1472.7115912456065L44.264843221753836,1267.735100314021Z" fill="#550412" stroke="#550412"></path><path d="M44.264843221753836,1267.735100314021L-49.97012559324503,1472.7115912456065L102.82341035082936,1422.444800566882Z" fill="#5c1218" stroke="#5c1218"></path><path d="M44.264843221753836,1267.735100314021L102.82341035082936,1422.444800566882L188.39424692094326,1260.1289408281446Z" fill="#641f1f" stroke="#641f1f"></path><path d="M188.39424692094326,1260.1289408281446L102.82341035082936,1422.444800566882L220.9157104510814,1434.2948568798602Z" fill="#692a24" stroke="#692a24"></path><path d="M188.39424692094326,1260.1289408281446L220.9157104510814,1434.2948568798602L428.6443104967475,1218.4127699118108Z" fill="#733c2d" stroke="#733c2d"></path><path d="M428.6443104967475,1218.4127699118108L220.9157104510814,1434.2948568798602L427.7753766439855,1475.6496344134212Z" fill="#784935" stroke="#784935"></path><path d="M428.6443104967475,1218.4127699118108L427.7753766439855,1475.6496344134212L502.0332772191614,1421.3430492114276Z" fill="#7a5444" stroke="#7a5444"></path><path d="M428.6443104967475,1218.4127699118108L502.0332772191614,1421.3430492114276L550.5486584734172,1293.998658573255Z" fill="#7b594a" stroke="#7b594a"></path><path d="M550.5486584734172,1293.998658573255L502.0332772191614,1421.3430492114276L674.5201481413096,1401.0294772870839Z" fill="#7d6356" stroke="#7d6356"></path><path d="M550.5486584734172,1293.998658573255L674.5201481413096,1401.0294772870839L674.5494491513819,1312.6874566543847Z" fill="#7e6a5f" stroke="#7e6a5f"></path><path d="M674.5494491513819,1312.6874566543847L674.5201481413096,1401.0294772870839L811.9079254288226,1317.9139262158424Z" fill="#7f7169" stroke="#7f7169"></path><path d="M811.9079254288226,1317.9139262158424L674.5201481413096,1401.0294772870839L798.1700116954744,1482.337248288095Z" fill="#7f736c" stroke="#7f736c"></path><path d="M811.9079254288226,1317.9139262158424L798.1700116954744,1482.337248288095L961.6031915042549,1439.2200485989451Z" fill="#7f7874" stroke="#7f7874"></path><path d="M811.9079254288226,1317.9139262158424L961.6031915042549,1439.2200485989451L929.9746878258884,1270.2713616751134Z" fill="#7f7b78" stroke="#7f7b78"></path><path d="M929.9746878258884,1270.2713616751134L961.6031915042549,1439.2200485989451L1104.933816427365,1334.7395459655672Z" fill="#808080" stroke="#808080"></path><path d="M1104.933816427365,1334.7395459655672L961.6031915042549,1439.2200485989451L1179.517878452316,1409.8598024994135Z" fill="#7c7c7c" stroke="#7c7c7c"></path><path d="M1104.933816427365,1334.7395459655672L1179.517878452316,1409.8598024994135L1241.5160843823105,1326.1724076233804Z" fill="#777777" stroke="#777777"></path><path d="M1241.5160843823105,1326.1724076233804L1179.517878452316,1409.8598024994135L1235.5975924618542,1436.2517608422786Z" fill="#757575" stroke="#757575"></path><path d="M1241.5160843823105,1326.1724076233804L1235.5975924618542,1436.2517608422786L1441.9929733593017,1383.1073808856308Z" fill="#717171" stroke="#717171"></path><path d="M1241.5160843823105,1326.1724076233804L1441.9929733593017,1383.1073808856308L1433.759485250339,1259.7359158471227Z" fill="#6b6b6b" stroke="#6b6b6b"></path><path d="M1433.759485250339,1259.7359158471227L1441.9929733593017,1383.1073808856308L1527.6371815055609,1247.0827758964151Z" fill="#616161" stroke="#616161"></path><path d="M1527.6371815055609,1247.0827758964151L1441.9929733593017,1383.1073808856308L1571.157104400918,1399.897306356579Z" fill="#5c5c5c" stroke="#5c5c5c"></path><path d="M1527.6371815055609,1247.0827758964151L1571.157104400918,1399.897306356579L1701.250019716099,1329.0423616580665Z" fill="#535353" stroke="#535353"></path><path d="M1701.250019716099,1329.0423616580665L1571.157104400918,1399.897306356579L1779.6554463542998,1388.309544408694Z" fill="#4a4a4a" stroke="#4a4a4a"></path><path d="M1701.250019716099,1329.0423616580665L1779.6554463542998,1388.309544408694L1909.96766240336,1270.6897144764662Z" fill="#3d3d3d" stroke="#3d3d3d"></path><path d="M1909.96766240336,1270.6897144764662L1779.6554463542998,1388.309544408694L1898.2860588748008,1407.8508267458528Z" fill="#353535" stroke="#353535"></path><path d="M1909.96766240336,1270.6897144764662L1898.2860588748008,1407.8508267458528L1992.5176147464663,1396.7320622317493Z" fill="#2d2d2d" stroke="#2d2d2d"></path><path d="M1909.96766240336,1270.6897144764662L1992.5176147464663,1396.7320622317493L2009.3179144430906,1275.3724889270961Z" fill="#292929" stroke="#292929"></path><path d="M2009.3179144430906,1275.3724889270961L1992.5176147464663,1396.7320622317493L2139.506664974615,1291.7880259640515Z" fill="#202020" stroke="#202020"></path><path d="M2139.506664974615,1291.7880259640515L1992.5176147464663,1396.7320622317493L2211.297296108678,1448.873499892652Z" fill="#191919" stroke="#191919"></path><path d="M2139.506664974615,1291.7880259640515L2211.297296108678,1448.873499892652L2268.496069293469,1421.3548954669386Z" fill="#0e0e0e" stroke="#0e0e0e"></path><path d="M2139.506664974615,1291.7880259640515L2268.496069293469,1421.3548954669386L2362.6820934657007,1286.3377763237804Z" fill="#080808" stroke="#080808"></path><path d="M2362.6820934657007,1286.3377763237804L2268.496069293469,1421.3548954669386L2459.3810918927193,1483.1588659621775Z" fill="#000000" stroke="#000000"></path><path d="M2362.6820934657007,1286.3377763237804L2459.3810918927193,1483.1588659621775L2526.0525701846927,1281.430528666824Z" fill="#000000" stroke="#000000"></path><path d="M-49.97012559324503,1472.7115912456065L798.1700116954744,1482.337248288095L427.7753766439855,1475.6496344134212Z" fill="#794d3a" stroke="#794d3a"></path><path d="M-49.97012559324503,1472.7115912456065L427.7753766439855,1475.6496344134212L220.9157104510814,1434.2948568798602Z" fill="#6c2f26" stroke="#6c2f26"></path><path d="M-49.97012559324503,1472.7115912456065L220.9157104510814,1434.2948568798602L102.82341035082936,1422.444800566882Z" fill="#621c1d" stroke="#621c1d"></path><path d="M427.7753766439855,1475.6496344134212L798.1700116954744,1482.337248288095L502.0332772191614,1421.3430492114276Z" fill="#7d6356" stroke="#7d6356"></path><path d="M502.0332772191614,1421.3430492114276L798.1700116954744,1482.337248288095L674.5201481413096,1401.0294772870839Z" fill="#7f6d63" stroke="#7f6d63"></path><path d="M798.1700116954744,1482.337248288095L2459.3810918927193,1483.1588659621775L1235.5975924618542,1436.2517608422786Z" fill="#5e5e5e" stroke="#5e5e5e"></path><path d="M798.1700116954744,1482.337248288095L1235.5975924618542,1436.2517608422786L961.6031915042549,1439.2200485989451Z" fill="#808080" stroke="#808080"></path><path d="M961.6031915042549,1439.2200485989451L1235.5975924618542,1436.2517608422786L1179.517878452316,1409.8598024994135Z" fill="#7a7a7a" stroke="#7a7a7a"></path><path d="M1235.5975924618542,1436.2517608422786L2459.3810918927193,1483.1588659621775L2211.297296108678,1448.873499892652Z" fill="#292929" stroke="#292929"></path><path d="M1235.5975924618542,1436.2517608422786L2211.297296108678,1448.873499892652L1898.2860588748008,1407.8508267458528Z" fill="#3f3f3f" stroke="#3f3f3f"></path><path d="M1235.5975924618542,1436.2517608422786L1898.2860588748008,1407.8508267458528L1571.157104400918,1399.897306356579Z" fill="#565656" stroke="#565656"></path><path d="M1235.5975924618542,1436.2517608422786L1571.157104400918,1399.897306356579L1441.9929733593017,1383.1073808856308Z" fill="#676767" stroke="#676767"></path><path d="M1571.157104400918,1399.897306356579L1898.2860588748008,1407.8508267458528L1779.6554463542998,1388.309544408694Z" fill="#424242" stroke="#424242"></path><path d="M1898.2860588748008,1407.8508267458528L2211.297296108678,1448.873499892652L1992.5176147464663,1396.7320622317493Z" fill="#222222" stroke="#222222"></path><path d="M2211.297296108678,1448.873499892652L2459.3810918927193,1483.1588659621775L2268.496069293469,1421.3548954669386Z" fill="#020202" stroke="#020202"></path></g></svg>