<?xml version="1.0" encoding="utf-8"?>
<!-- Generator: Adobe Illustrator 15.0.2, SVG Export Plug-In . SVG Version: 6.00 Build 0)  -->
<!DOCTYPE svg PUBLIC "-//W3C//DTD SVG 1.1//EN" "http://www.w3.org/Graphics/SVG/1.1/DTD/svg11.dtd">
<svg version="1.1" xmlns="http://www.w3.org/2000/svg" xmlns:xlink="http://www.w3.org/1999/xlink" x="0px" y="0px"
	 width="289.333px" height="122.833px" viewBox="0 0 289.333 122.833" enable-background="new 0 0 289.333 122.833"
	 xml:space="preserve">
<g id="fond">
	<rect y="0" width="289.333" height="122.833"/>
</g>
<g id="compacte">
</g>
<g id="rectangle">
	<g>
		<path fill="#FFFFFF" d="M69.977,19.888c-21.435,0-38.812,17.376-38.812,38.812c0,21.438,17.377,38.815,38.812,38.815
			c21.437,0,38.813-17.378,38.813-38.815C108.791,37.264,91.414,19.888,69.977,19.888z M90.909,42.353
			c-1.797,0.062-3.038-1.012-3.095-2.643c-0.019-0.599,0.135-1.12,0.545-1.732c0.401-0.785,0.486-0.875,0.476-1.217
			c-0.036-1.026-1.587-1.065-2.013-1.046c-5.826,0.193-7.361,8.056-8.606,14.451l-0.61,3.371c3.355,0.491,5.737-0.115,7.066-0.974
			c1.87-1.213-0.523-2.461-0.223-3.842c0.307-1.408,1.586-2.087,2.604-2.115c1.423-0.036,2.44,1.441,2.408,2.941
			c-0.051,2.479-3.34,5.885-9.917,5.746c-0.802-0.019-1.539-0.074-2.227-0.158l-1.241,6.851c-1.111,5.187-2.587,12.275-7.869,18.458
			c-4.537,5.394-9.141,6.232-11.203,6.302c-3.857,0.132-6.415-1.927-6.506-4.671c-0.089-2.658,2.261-4.108,3.804-4.161
			c2.059-0.067,3.483,1.423,3.538,3.142c0.052,1.456-0.707,1.91-1.21,2.186c-0.334,0.271-0.841,0.544-0.821,1.145
			c0.012,0.255,0.288,0.845,1.144,0.818c1.631-0.056,2.713-0.862,3.471-1.402c3.757-3.131,5.203-8.588,7.097-18.521l0.397-2.408
			c0.647-3.231,1.363-6.832,2.456-10.421c-2.649-1.995-4.237-4.467-7.8-5.434c-2.441-0.664-3.931-0.101-4.978,1.224
			c-1.24,1.567-0.828,3.607,0.37,4.805l1.979,2.188c2.426,2.803,3.752,4.985,3.253,7.917c-0.792,4.686-6.373,8.279-12.97,6.249
			c-5.631-1.735-6.683-5.722-6.007-7.92c0.596-1.932,2.131-2.297,3.634-1.837c1.609,0.498,2.239,2.454,1.778,3.954
			c-0.051,0.16-0.134,0.429-0.303,0.788c-0.186,0.414-0.532,0.777-0.681,1.261c-0.362,1.181,1.254,2.016,2.38,2.362
			c2.52,0.775,4.977-0.542,5.601-2.581c0.579-1.874-0.605-3.181-1.097-3.682l-2.386-2.554c-1.092-1.217-3.492-4.604-2.322-8.411
			c0.452-1.467,1.403-3.024,2.783-4.055c2.913-2.17,6.081-2.528,9.097-1.66c3.903,1.123,5.778,3.704,8.211,5.697
			c1.36-3.991,3.247-7.899,6.084-11.197c2.562-3.004,6.003-5.18,9.946-5.315c3.94-0.129,6.918,1.656,7.016,4.482
			C94.002,39.934,93.312,42.272,90.909,42.353z"/>
		<g>
			<g>
				<path fill="#FFFFFF" d="M209.839,50.793c5.588,0,9.335,4.037,9.335,9.622c0,5.264-3.82,9.623-9.335,9.623
					c-5.548,0-9.37-4.359-9.37-9.623C200.469,54.83,204.217,50.793,209.839,50.793z M209.839,67.302c3.964,0,5.73-3.604,5.73-6.887
					c0-3.495-2.126-6.882-5.73-6.882c-3.638,0-5.765,3.387-5.765,6.882C204.074,63.697,205.838,67.302,209.839,67.302z"/>
			</g>
			<path fill="#FFFFFF" d="M200.005,52.504v-1.279h-4.865v-1.748c0-2.486,0.359-4.362,3.278-4.362c0.055,0,0.111,0.004,0.166,0.006
				c0.007,0,0.005-0.009,0.013-0.009c0.81,0.06,1.483-0.601,1.529-1.41l0.059-1.11c-0.685-0.108-1.406-0.216-2.269-0.216
				c-5.011,0-6.165,2.919-6.165,7.389v1.459h-4.324v1.428c0.109,0.74,0.743,1.309,1.516,1.309c0.004,0,0.008,0.003,0.011,0.003
				h2.798v15.642h1.866c0.006,0,0.004-0.002,0.008-0.002c0.774,0,1.41-0.581,1.515-1.328V53.965h3.388
				C199.327,53.939,199.969,53.302,200.005,52.504z"/>
			<path fill="#FFFFFF" d="M154.879,51.225c-0.006,0-0.009,0.004-0.017,0.004c-0.715,0-1.406,0.491-1.708,1.154l-4.662,14.053
				h-0.072l-4.559-14.045c-0.298-0.667-0.994-1.162-1.711-1.162c-0.007,0-0.01-0.004-0.018-0.004h-2.362l6.236,17.157
				c0.217,0.613,0.649,1.55,0.649,1.946c0,0.359-1.011,4.541-4.038,4.541c-0.076,0-0.151-0.009-0.225-0.014
				c-0.772-0.042-1.355,0.497-1.485,1.328l-0.092,1.173c0.612,0.107,1.227,0.252,2.308,0.252c4.469,0,5.801-4.074,7.065-7.604
				l6.773-18.779H154.879z"/>
			<path fill="#FFFFFF" d="M133.342,54.959c-2.798-1.431-5.859-2.403-5.914-5.283c0.009-3.06,2.82-3.863,4.986-3.86
				c0.009-0.002,0.018-0.002,0.023-0.002c0.941,0,1.693,0.094,2.427,0.255c0.01,0,0.009-0.012,0.021-0.012
				c0.776,0.056,1.427-0.55,1.52-1.315l0.062-1.111c-1.42-0.353-2.904-0.532-4.195-0.532c-4.711,0.029-8.208,2.399-8.22,6.921
				c0.007,3.954,2.672,5.486,5.538,6.874c2.811,1.352,5.889,2.468,5.916,5.73c-0.017,3.403-3.302,4.66-5.565,4.664
				c-1.324-0.004-2.763-0.334-3.973-0.717c-0.759-0.125-1.382,0.545-1.479,1.432l-0.103,0.991c1.666,0.538,3.372,1.007,5.087,1.007
				c0,0,0.002,0,0.005,0c0.004,0,0.009,0,0.016,0c5.275-0.038,9.376-2.144,9.391-7.606C138.877,58.179,136.195,56.41,133.342,54.959
				z"/>
			<path fill="#FFFFFF" d="M184.584,69.607c0.002,0,0.002-0.002,0.004-0.002c0.732,0,1.341-0.512,1.496-1.198V57.822
				c0-4.001-1.692-7.029-6.381-7.029c-1.657,0-4.432,0.939-5.693,3.569c-0.974-2.488-3.101-3.569-5.226-3.569
				c-2.703,0-4.542,0.973-5.838,3.1h-0.073V52.75c-0.012-0.841-0.691-1.521-1.534-1.521c-0.007,0-0.011-0.004-0.017-0.004h-1.621
				v18.382h1.836c0.002,0,0.002-0.002,0.004-0.002c0.849,0,1.536-0.689,1.536-1.536c0-0.022,0.007-0.032,0.013-0.047v-7.677
				c0-3.425,1.369-6.812,4.829-6.812c2.737,0,3.281,2.846,3.281,5.117v10.957h1.859c0.002,0,0.002-0.002,0.006-0.002
				c0.802,0,1.448-0.616,1.521-1.397v-7.862c0-3.425,1.37-6.812,4.829-6.812c2.739,0,3.279,2.846,3.279,5.117v10.957H184.584z"/>
			<path fill="#FFFFFF" d="M236.936,69.607c0.003,0,0.003-0.002,0.007-0.002c0.825,0,1.49-0.651,1.527-1.467v-9.451
				c0-4.938-2.128-7.895-6.886-7.895c-2.556,0-5.007,1.263-6.016,3.354h-0.071v-1.375c0-0.001-0.004-0.001-0.004-0.005
				c0-0.85-0.688-1.539-1.536-1.539c-0.008,0-0.012-0.004-0.017-0.004h-1.727v18.382h1.862c0,0,0-0.002,0.006-0.002
				c0.804,0,1.457-0.624,1.521-1.414v-7.091c0-4.467,1.732-7.567,5.586-7.567c2.957,0.18,3.893,2.27,3.893,6.558v9.516H236.936z"/>
			<path fill="#FFFFFF" d="M255.174,51.225c-0.006,0-0.01,0.004-0.017,0.004c-0.715,0-1.407,0.491-1.707,1.154l-4.66,14.053h-0.076
				l-4.558-14.045c-0.299-0.667-0.994-1.162-1.712-1.162c-0.008,0-0.011-0.004-0.017-0.004h-2.361l6.233,17.157
				c0.217,0.613,0.65,1.55,0.65,1.946c0,0.359-1.011,4.541-4.037,4.541c-0.076,0-0.15-0.009-0.226-0.014
				c-0.771-0.042-1.355,0.497-1.485,1.328l-0.092,1.173c0.614,0.107,1.227,0.252,2.308,0.252c4.471,0,5.803-4.074,7.064-7.604
				l6.776-18.779H255.174z"/>
		</g>
	</g>
</g>
<g id="carré">
</g>
</svg>
